<svg width="51" height="50" viewBox="0 0 51 50" fill="none" xmlns="http://www.w3.org/2000/svg">
<rect x="1.5" y="1" width="48" height="48" rx="24" fill="#C91149"/>
<rect x="1.5" y="1" width="48" height="48" rx="24" stroke="#0D1936" stroke-width="2"/>
<path d="M23.8896 13.5488C24.5002 12.0845 26.6565 12.1335 27.1641 13.6953L29.1318 19.751L29.168 19.8213C29.2142 19.8844 29.2888 19.9238 29.3701 19.9238H35.7373C37.3794 19.924 38.0925 21.96 36.8887 22.9932L36.7656 23.0898L31.6143 26.832C31.5268 26.8956 31.4902 27.0084 31.5234 27.1113L33.4912 33.167L33.5332 33.3174C33.8885 34.8113 32.2388 36.0103 30.9277 35.2109L30.7979 35.124L25.6465 31.3809C25.5809 31.3335 25.498 31.322 25.4238 31.3457L25.3535 31.3809L20.2021 35.124C18.8306 36.1205 16.9849 34.7793 17.5088 33.167L19.4766 27.1113L19.4883 27.0332C19.488 26.9813 19.4717 26.9308 19.4414 26.8887L19.3857 26.832L14.2344 23.0898C12.8629 22.0934 13.5676 19.924 15.2627 19.9238H21.6299C21.7382 19.9238 21.8347 19.854 21.8682 19.751L23.8359 13.6953L23.8896 13.5488Z" fill="#ECECEC" stroke="#0D1936" stroke-width="1.5"/>
</svg>
